<svg width="230" height="360" viewBox="0 0 230 360" fill="none" xmlns="http://www.w3.org/2000/svg">
<path d="M27 276V72H96.9C113.1 72 126.9 77.7 138.3 89.1C149.7 100.3 155.4 114.1 155.4 130.5C155.4 142.1 152.3 152.6 146.1 162C140.1 171.4 132 178.5 121.8 183.3C127.8 185.9 132.2 190.8 135 198L163.5 273.6L140.7 280.8L111 202.2C108.2 195 105.4 190.9 102.6 189.9C101 189.3 99 188.9 96.6 188.7H51V276H27ZM95.7 93.9H51V167.7H95.7C105.5 167.7 113.9 164 120.9 156.6C127.9 149.2 131.4 140.5 131.4 130.5C131.4 120.5 127.9 111.9 120.9 104.7C113.9 97.5 105.5 93.9 95.7 93.9Z" fill="#CB1616"/>
<path d="M61 306V102H133.9C162.7 102 184.3 111.5 198.7 130.5C213.1 149.5 220.3 174 220.3 204C220.3 234 213.1 258.5 198.7 277.5C184.3 296.5 162.7 306 133.9 306H61ZM133.9 123.6H85V284.4H133.9C154.7 284.4 170.3 277 180.7 262.2C191.1 247.2 196.3 227.8 196.3 204C196.3 180.2 191.1 160.9 180.7 146.1C170.3 131.1 154.7 123.6 133.9 123.6Z" fill="#CB1616"/>
<path d="M143 286L140 277.5L162 271.5L165 278L168.5 280.5L143 286Z" fill="#CB1616"/>
</svg>
